<svg version="1.1" xmlns="http://www.w3.org/2000/svg" viewBox="0 0 1535.1428571428573 705.7738095238093" width="1535.1428571428573" height="705.7738095238093" filter="invert(93%) hue-rotate(180deg)">
  <!-- svg-source:excalidraw -->
  
  <defs>
    <style class="style-fonts">
      @font-face {
        font-family: "Virgil";
        src: url("https://excalidraw.com/Virgil.woff2");
      }
      @font-face {
        font-family: "Cascadia";
        src: url("https://excalidraw.com/Cascadia.woff2");
      }
      @font-face {
        font-family: "Assistant";
        src: url("https://excalidraw.com/Assistant-Regular.woff2");
      }
    </style>
    
  </defs>
  <rect x="0" y="0" width="1535.1428571428573" height="705.7738095238093" fill="#ffffff"></rect><g stroke-linecap="round" transform="translate(523.9188479837509 237.0595238095235) rotate(0 232 114.71428571428572)"><path d="M32 0 C147.51 2.55, 263.47 0.81, 432 0 M32 0 C119.69 3.64, 205.78 3.25, 432 0 M432 0 C456.55 -0.78, 464.81 8.63, 464 32 M432 0 C457.6 2.86, 460.36 9.97, 464 32 M464 32 C466.09 69.34, 464.58 103.66, 464 197.43 M464 32 C461.35 74.24, 459.11 111.89, 464 197.43 M464 197.43 C465.67 214.77, 449.6 227.55, 432 229.43 M464 197.43 C461.9 215.42, 449.01 230.48, 432 229.43 M432 229.43 C341.95 233.19, 254.23 232.67, 32 229.43 M432 229.43 C329.94 230.33, 227.34 230.04, 32 229.43 M32 229.43 C7.81 229.44, 2.63 220.47, 0 197.43 M32 229.43 C14.41 227.09, -2.4 216.49, 0 197.43 M0 197.43 C-1.61 139.7, -5.29 86.95, 0 32 M0 197.43 C-3.31 140.1, -4.29 81.67, 0 32 M0 32 C-3.33 8.15, 14.4 -2.99, 32 0 M0 32 C3.38 13.03, 7.61 -1.16, 32 0" stroke="#1e1e1e" stroke-width="2" fill="none"></path></g><g stroke-linecap="round"><g transform="translate(522.9188479837509 281.0595238095235) rotate(0 229.5 1)"><path d="M-0.66 1.16 C75.46 1.56, 382.34 4.12, 458.91 3.93 M4.18 -0.68 C79.71 -1.19, 381.19 -0.49, 456.63 -0.03" stroke="#1e1e1e" stroke-width="2" fill="none"></path></g></g><mask></mask><g transform="translate(650.4902765551795 244.91666666666646) rotate(0 103.54396057128906 17.49999999999997)"><text x="0" y="24.528" font-family="Virgil, Segoe UI Emoji" font-size="28px" fill="#1e1e1e" text-anchor="start" style="white-space: pre;" direction="ltr" dominant-baseline="alphabetic">AbstractChoice</text></g><g transform="translate(528.7759908408938 402.6309523809522) rotate(0 225.57980346679688 25)"><text x="0" y="17.52" font-family="Virgil, Segoe UI Emoji" font-size="20px" fill="#1e1e1e" text-anchor="start" style="white-space: pre;" direction="ltr" dominant-baseline="alphabetic">constructor(losing_case, winning_case): Choice</text><text x="0" y="42.519999999999996" font-family="Virgil, Segoe UI Emoji" font-size="20px" fill="#1e1e1e" text-anchor="start" style="white-space: pre;" direction="ltr" dominant-baseline="alphabetic">get_result(second_player_choice):</text></g><g stroke-linecap="round"><g transform="translate(523.7915614724637 389.5178772699777) rotate(0 229.5 1)"><path d="M0.17 -1.4 C77.06 -1.43, 385.23 1.31, 461.77 1.92 M-3.18 4.01 C73.55 4.26, 384.21 5.25, 461.03 5.5" stroke="#1e1e1e" stroke-width="2" fill="none"></path></g></g><mask></mask><g transform="translate(527.6331336980367 289.7738095238093) rotate(0 67.02993774414062 37.5)"><text x="0" y="17.52" font-family="Virgil, Segoe UI Emoji" font-size="20px" fill="#1e1e1e" text-anchor="start" style="white-space: pre;" direction="ltr" dominant-baseline="alphabetic">-losing_case;</text><text x="0" y="42.519999999999996" font-family="Virgil, Segoe UI Emoji" font-size="20px" fill="#1e1e1e" text-anchor="start" style="white-space: pre;" direction="ltr" dominant-baseline="alphabetic">-winning_case;</text><text x="0" y="67.52" font-family="Virgil, Segoe UI Emoji" font-size="20px" fill="#1e1e1e" text-anchor="start" style="white-space: pre;" direction="ltr" dominant-baseline="alphabetic">-draw_case;</text></g><g stroke-linecap="round" transform="translate(1049.0000000000005 237.2023809523804) rotate(0 232 115.42857142857139)"><path d="M32 0 C168.71 2.42, 309.79 -0.74, 432 0 M32 0 C148.98 -3.15, 265.26 -3.26, 432 0 M432 0 C453.39 -1.37, 466.51 12.86, 464 32 M432 0 C455.43 1.53, 467.3 12.08, 464 32 M464 32 C459.04 67.99, 464.4 112.59, 464 198.86 M464 32 C465.96 69.63, 465.51 110, 464 198.86 M464 198.86 C461.49 218.27, 456.74 231.98, 432 230.86 M464 198.86 C465.37 215.77, 457.05 233.82, 432 230.86 M432 230.86 C304.11 230.64, 180.91 230.26, 32 230.86 M432 230.86 C336.81 230.49, 240.55 230.62, 32 230.86 M32 230.86 C12.76 229.47, 3.82 217.69, 0 198.86 M32 230.86 C13.46 234.75, 1.94 220.13, 0 198.86 M0 198.86 C-4.5 130.22, -2.36 69.37, 0 32 M0 198.86 C2.87 157.69, 2.82 120.41, 0 32 M0 32 C3.32 10.43, 7.05 -0.11, 32 0 M0 32 C4.55 10.61, 11.92 -2.23, 32 0" stroke="#1e1e1e" stroke-width="2" fill="none"></path></g><g stroke-linecap="round"><g transform="translate(1049.428571428572 284.0595238095233) rotate(0 229.5 1)"><path d="M2.77 -0.02 C79.1 0.73, 381.58 1.22, 457.87 1.79 M0.83 -2.49 C76.69 -1.04, 378.56 5.12, 455.01 5.3" stroke="#1e1e1e" stroke-width="2" fill="none"></path></g></g><mask></mask><g transform="translate(1136.2857142857151 245.05952380952323) rotate(0 141.60992431640625 17.50000000000003)"><text x="0" y="24.528" font-family="Virgil, Segoe UI Emoji" font-size="28px" fill="#1e1e1e" text-anchor="start" style="white-space: pre;" direction="ltr" dominant-baseline="alphabetic">interface&lt;&lt;IChoice&gt;&gt;</text></g><g transform="translate(1055.2857142857147 401.3452380952375) rotate(0 225.57980346679688 25)"><text x="0" y="17.52" font-family="Virgil, Segoe UI Emoji" font-size="20px" fill="#1e1e1e" text-anchor="start" style="white-space: pre;" direction="ltr" dominant-baseline="alphabetic">constructor(losing_case, winning_case): Choice</text><text x="0" y="42.519999999999996" font-family="Virgil, Segoe UI Emoji" font-size="20px" fill="#1e1e1e" text-anchor="start" style="white-space: pre;" direction="ltr" dominant-baseline="alphabetic">get_result(second_player_choice):</text></g><g stroke-linecap="round"><g transform="translate(1047.444142060142 389.6607344128346) rotate(0 229.5 1)"><path d="M0.07 -2.3 C76.06 -2.63, 380.92 -1.14, 457.41 -0.58 M-3.33 2.62 C73.44 2.42, 386.19 1.48, 462.95 1.64" stroke="#1e1e1e" stroke-width="2" fill="none"></path></g></g><mask></mask><g transform="translate(1051.2857142857147 289.9166666666662) rotate(0 67.02993774414062 37.5)"><text x="0" y="17.52" font-family="Virgil, Segoe UI Emoji" font-size="20px" fill="#1e1e1e" text-anchor="start" style="white-space: pre;" direction="ltr" dominant-baseline="alphabetic">-losing_case;</text><text x="0" y="42.519999999999996" font-family="Virgil, Segoe UI Emoji" font-size="20px" fill="#1e1e1e" text-anchor="start" style="white-space: pre;" direction="ltr" dominant-baseline="alphabetic">-winning_case;</text><text x="0" y="67.52" font-family="Virgil, Segoe UI Emoji" font-size="20px" fill="#1e1e1e" text-anchor="start" style="white-space: pre;" direction="ltr" dominant-baseline="alphabetic">-draw_case;</text></g><g stroke-linecap="round"><g transform="translate(992.2045622694656 350.17037069409423) rotate(0 22.96914743669595 0.8862285670971914)"><path d="M-0.51 0.52 C7.37 0.75, 38.61 0.54, 46.54 0.73" stroke="#1e1e1e" stroke-width="2.5" fill="none" stroke-dasharray="1.5 8"></path></g><g transform="translate(992.2045622694656 350.17037069409423) rotate(0 22.96914743669595 0.8862285670971914)"><path d="M45.42 2.51 L32.49 7.32 L32.63 -6.56 L48.44 2.58" stroke="none" stroke-width="0" fill="#1e1e1e" fill-rule="evenodd"></path><path d="M47.19 1.48 C41.92 3.56, 39.81 4.75, 32.18 6.37 M33.76 6.47 C33.81 3.14, 33.33 -3.43, 32.11 -6.18 M31.72 -5.71 C35.33 -5.9, 39.58 -1.83, 47.45 0.05 M46.54 0.73 C46.54 0.73, 46.54 0.73, 46.54 0.73" stroke="#1e1e1e" stroke-width="2.5" fill="none"></path></g></g><mask></mask><g stroke-linecap="round" transform="translate(10 594.2023809523804) rotate(0 232 47.571428571428555)"><path d="M23.79 0 C156.4 0.17, 289.74 2.2, 440.21 0 M23.79 0 C185.23 -3.55, 346.71 -3.18, 440.21 0 M440.21 0 C457.77 1.04, 463.18 10.71, 464 23.79 M440.21 0 C455.66 -2.88, 464.86 12.39, 464 23.79 M464 23.79 C462.04 44.85, 464.52 60.25, 464 71.36 M464 23.79 C465.3 35.14, 462.74 48.05, 464 71.36 M464 71.36 C466.99 83.67, 455.06 96.58, 440.21 95.14 M464 71.36 C461.6 91.44, 455.4 96.9, 440.21 95.14 M440.21 95.14 C343.94 92.12, 244.63 91.44, 23.79 95.14 M440.21 95.14 C296.38 97.87, 153.59 97.63, 23.79 95.14 M23.79 95.14 C8.29 91.78, 2.88 85.08, 0 71.36 M23.79 95.14 C5.35 94.76, 2.91 89.77, 0 71.36 M0 71.36 C-1.51 56.16, 4.7 39.91, 0 23.79 M0 71.36 C-0.33 58.24, -1.56 45.19, 0 23.79 M0 23.79 C3.81 11.26, 6.44 -3.68, 23.79 0 M0 23.79 C-1 7.51, 4.44 1.6, 23.79 0" stroke="#1e1e1e" stroke-width="2" fill="none"></path></g><g stroke-linecap="round"><g transform="translate(13.285714285714448 638.2023809523804) rotate(0 229.5 1)"><path d="M-2.32 -0.03 C74.43 0.79, 382.38 3.75, 459.31 4.45 M1.61 -2.51 C78.13 -2.39, 381.25 0.38, 457.25 0.76" stroke="#1e1e1e" stroke-width="2" fill="none"></path></g></g><mask></mask><g transform="translate(208.857142857143 599.630952380952) rotate(0 31.09398651123047 17.5)"><text x="0" y="24.528" font-family="Virgil, Segoe UI Emoji" font-size="28px" fill="#1e1e1e" text-anchor="start" style="white-space: pre;" direction="ltr" dominant-baseline="alphabetic">Rock</text></g><g stroke-linecap="round"><g transform="translate(14.15842777442731 662.3750201271204) rotate(0 229.5 1)"><path d="M0.38 -0.26 C76.98 -0.17, 383.22 2.2, 459.85 2.7 M-2.86 -2.87 C73.42 -3.86, 381.1 -3.45, 458.08 -1.93" stroke="#1e1e1e" stroke-width="2" fill="none"></path></g></g><mask></mask><g stroke-linecap="round" transform="translate(1056.8571428571431 599.2023809523806) rotate(0 234.14285714285722 48.285714285714334)"><path d="M24.14 0 C156.73 1.03, 288.72 2.26, 444.14 0 M24.14 0 C172.36 4, 318.59 4.46, 444.14 0 M444.14 0 C464.06 -1.52, 469.57 7.45, 468.29 24.14 M444.14 0 C458.65 2.76, 470.2 10.23, 468.29 24.14 M468.29 24.14 C466.55 41.97, 469.95 61.65, 468.29 72.43 M468.29 24.14 C466.27 39.02, 469.1 55.69, 468.29 72.43 M468.29 72.43 C471.28 90.23, 457.11 95.77, 444.14 96.57 M468.29 72.43 C468.59 91.35, 463.05 96.32, 444.14 96.57 M444.14 96.57 C350.09 98.55, 260.26 96.38, 24.14 96.57 M444.14 96.57 C335.08 93.55, 224.33 94.68, 24.14 96.57 M24.14 96.57 C6.54 93.94, -0.76 86.37, 0 72.43 M24.14 96.57 C12.02 96.46, -2.33 85.75, 0 72.43 M0 72.43 C2.42 58.77, -0.17 54.28, 0 24.14 M0 72.43 C-1.18 60.06, 0.62 42.81, 0 24.14 M0 24.14 C-3.1 6.49, 7.27 2.86, 24.14 0 M0 24.14 C-1.53 11.97, 5.44 -0.22, 24.14 0" stroke="#1e1e1e" stroke-width="2" fill="none"></path></g><g stroke-linecap="round"><g transform="translate(1063 643.2023809523806) rotate(0 229.5 1)"><path d="M-2.32 1.22 C74.35 1.62, 381.73 3.74, 458.29 3.42 M1.61 -0.59 C78 -1.11, 378.8 -1.07, 455.67 -0.81" stroke="#1e1e1e" stroke-width="2" fill="none"></path></g></g><mask></mask><g transform="translate(1231 604.2023809523806) rotate(0 55.18797302246094 17.5)"><text x="0" y="24.528" font-family="Virgil, Segoe UI Emoji" font-size="28px" fill="#1e1e1e" text-anchor="start" style="white-space: pre;" direction="ltr" dominant-baseline="alphabetic">Scissors</text></g><g stroke-linecap="round"><g transform="translate(1061.01557063157 668.8035915556919) rotate(0 229.5 1)"><path d="M2.29 -0.84 C78.99 0, 381.76 2.06, 458.33 2.36 M0.08 -3.77 C76.53 -2.17, 378.85 4.98, 455.72 6.19" stroke="#1e1e1e" stroke-width="2" fill="none"></path></g></g><mask></mask><g stroke-linecap="round" transform="translate(526.7142857142857 597.7738095238093) rotate(0 232 49)"><path d="M24.5 0 C125.55 0.23, 232.19 -0.27, 439.5 0 M24.5 0 C108.39 -0.03, 192.82 -0.46, 439.5 0 M439.5 0 C457.55 -1.95, 464.16 10.45, 464 24.5 M439.5 0 C457.02 4.2, 468.46 12.23, 464 24.5 M464 24.5 C463.46 41.14, 467.01 61.4, 464 73.5 M464 24.5 C464.84 37.69, 462.54 46.99, 464 73.5 M464 73.5 C465.29 91.6, 457.77 100.25, 439.5 98 M464 73.5 C462.54 91.01, 451.82 99.74, 439.5 98 M439.5 98 C296.81 94.97, 149.31 95.29, 24.5 98 M439.5 98 C348.23 95.21, 258.7 94.03, 24.5 98 M24.5 98 C10.06 95.14, -0.96 89.43, 0 73.5 M24.5 98 C7.01 96.89, -2.29 90.7, 0 73.5 M0 73.5 C-3.94 60.26, -3.38 49.73, 0 24.5 M0 73.5 C-0.27 59.12, -0.99 44.48, 0 24.5 M0 24.5 C2.86 9.58, 6.14 -2.74, 24.5 0 M0 24.5 C3.26 4.6, 11.94 3.91, 24.5 0" stroke="#1e1e1e" stroke-width="2" fill="none"></path></g><g stroke-linecap="round"><g transform="translate(525.7142857142857 641.7738095238093) rotate(0 229.5 1)"><path d="M1.69 2.78 C78.25 3.02, 383.49 -0.58, 460.05 -0.74 M-0.83 1.81 C75.39 2.5, 381.51 0.89, 458.38 1.4" stroke="#1e1e1e" stroke-width="2" fill="none"></path></g></g><mask></mask><g transform="translate(715.7142857142857 602.7738095238093) rotate(0 39.17198181152344 17.5)"><text x="0" y="24.528" font-family="Virgil, Segoe UI Emoji" font-size="28px" fill="#1e1e1e" text-anchor="start" style="white-space: pre;" direction="ltr" dominant-baseline="alphabetic">Paper</text></g><g stroke-linecap="round"><g transform="translate(526.5869992029985 667.3750201271204) rotate(0 229.5 1)"><path d="M0.15 -0.86 C76.59 -0.83, 384.03 -0.22, 460.71 0.03 M-3.21 -3.8 C72.82 -3.44, 382.36 1.46, 459.4 2.6" stroke="#1e1e1e" stroke-width="2" fill="none"></path></g></g><mask></mask><g stroke-linecap="round"><g transform="translate(292.38431976357913 589.1204734141785) rotate(0 129.10014846145714 -58.38060624892347)"><path d="M2.43 -1.57 C45.96 -20.62, 216.78 -95.53, 259.25 -114.93 M0.31 3.75 C43.73 -16.03, 215.14 -99.08, 257.58 -118.95" stroke="#1e1e1e" stroke-width="2" fill="none"></path></g><g transform="translate(292.38431976357913 589.1204734141785) rotate(0 129.10014846145714 -58.38060624892347)"><path d="M255.78 -118.27 L246.19 -107.43 L241.57 -119.68 L258.11 -119.14" stroke="none" stroke-width="0" fill="#1e1e1e" fill-rule="evenodd"></path><path d="M256.73 -118.39 C256.31 -116.69, 252.47 -113.67, 248.48 -108.53 M258 -118.96 C253.73 -115.34, 250.74 -110.99, 248.63 -106.92 M248.87 -107.9 C245.38 -109.2, 245.37 -113.88, 241.45 -117.89 M247.71 -107.09 C245.86 -110.88, 245.08 -115.05, 242.92 -119.15 M241.26 -119.03 C245.71 -118.03, 251.38 -118.11, 257.33 -119.41 M242.35 -118.81 C246 -118.27, 250.2 -119.6, 257.63 -118.54 M257.58 -118.95 C257.58 -118.95, 257.58 -118.95, 257.58 -118.95 M257.58 -118.95 C257.58 -118.95, 257.58 -118.95, 257.58 -118.95" stroke="#1e1e1e" stroke-width="2" fill="none"></path></g></g><mask></mask><g stroke-linecap="round"><g transform="translate(1212.1076444954106 595.69265750756) rotate(0 -122.73725539868713 -63.27817673613498)"><path d="M-1.2 -1.62 C-41.49 -22.35, -203.32 -103.27, -243.89 -124.31 M3.34 3.67 C-36.99 -17.82, -203.71 -106.57, -245.27 -128.11" stroke="#1e1e1e" stroke-width="2" fill="none"></path></g><g transform="translate(1212.1076444954106 595.69265750756) rotate(0 -122.73725539868713 -63.27817673613498)"><path d="M-247.08 -127.48 L-232.08 -126.24 L-237.51 -117.35 L-246.36 -129.54" stroke="none" stroke-width="0" fill="#1e1e1e" fill-rule="evenodd"></path><path d="M-246.14 -127.26 C-240.72 -127.44, -239.3 -127.3, -229.18 -128.58 M-245.46 -127.44 C-241.89 -128.26, -239.29 -128.29, -230.28 -126.92 M-229.18 -126.94 C-233.32 -122.41, -235.86 -119.18, -235.09 -114.95 M-229.98 -126.94 C-232.52 -123.3, -234.01 -119.56, -236.12 -115.71 M-237.15 -117.48 C-239.36 -117.95, -240.04 -120.97, -244.24 -129.17 M-236.13 -116.73 C-239.33 -119.91, -241.56 -123.46, -245.54 -127.84 M-245.27 -128.11 C-245.27 -128.11, -245.27 -128.11, -245.27 -128.11 M-245.27 -128.11 C-245.27 -128.11, -245.27 -128.11, -245.27 -128.11" stroke="#1e1e1e" stroke-width="2" fill="none"></path></g></g><mask></mask><g stroke-linecap="round"><g transform="translate(759.705117336525 585.8355146504175) rotate(0 0.49999264745497385 -55.38799542044694)"><path d="M-1.92 0.41 C-2.16 -17.78, 0.58 -90.42, 1.31 -108.56 M2.24 -1.83 C1.39 -20.84, -0.63 -93.9, -0.76 -112.37" stroke="#1e1e1e" stroke-width="2" fill="none"></path></g><g transform="translate(759.705117336525 585.8355146504175) rotate(0 0.49999264745497385 -55.38799542044694)"><path d="M-2.2 -112.16 L7.26 -98.98 L-7.36 -99.77 L-2.1 -112.14" stroke="none" stroke-width="0" fill="#1e1e1e" fill-rule="evenodd"></path><path d="M-0.54 -112.21 C3.09 -106.16, 5.79 -100.3, 6 -98.62 M-0.7 -111.73 C1.16 -109.88, 2.71 -105.98, 6.06 -98.23 M4.71 -98.08 C1.88 -97.83, -2.77 -99.75, -5.9 -98.79 M6 -99.08 C2.51 -98.64, 0.97 -98.45, -6.63 -98.67 M-6.13 -97.35 C-5.07 -105.32, -3.13 -110.85, -0.9 -113.24 M-6.97 -97.93 C-5.03 -103.45, -2.19 -109.07, -1 -112.1 M-0.76 -112.37 C-0.76 -112.37, -0.76 -112.37, -0.76 -112.37 M-0.76 -112.37 C-0.76 -112.37, -0.76 -112.37, -0.76 -112.37" stroke="#1e1e1e" stroke-width="2" fill="none"></path></g></g><mask></mask><g stroke-linecap="round" transform="translate(322.13492063492083 13.57142857142884) rotate(0 232 59.62499999999994)"><path d="M29.81 0 C130.04 2.52, 234.09 2.66, 434.19 0 M29.81 0 C188.28 0.76, 346.44 0.76, 434.19 0 M434.19 0 C451.61 -1.28, 467.98 8.83, 464 29.81 M434.19 0 C458.62 -0.66, 466.55 11.68, 464 29.81 M464 29.81 C466.62 50.62, 462.67 76.08, 464 89.44 M464 29.81 C465.33 47.92, 462.75 64.79, 464 89.44 M464 89.44 C467.25 109.43, 452.54 117.91, 434.19 119.25 M464 89.44 C464.06 104.91, 457.88 122.57, 434.19 119.25 M434.19 119.25 C314.69 119.98, 197.72 117.38, 29.81 119.25 M434.19 119.25 C309.67 122.91, 186.66 124.58, 29.81 119.25 M29.81 119.25 C10.2 119.02, 0.07 112.27, 0 89.44 M29.81 119.25 C9.24 121.43, -4.51 111.62, 0 89.44 M0 89.44 C3.48 73.18, -2.77 56.91, 0 29.81 M0 89.44 C-0.41 67.35, -2.36 44.56, 0 29.81 M0 29.81 C2.35 7.29, 9.75 0.35, 29.81 0 M0 29.81 C1.1 6.99, 7.65 3.83, 29.81 0" stroke="#1e1e1e" stroke-width="2" fill="none"></path></g><g stroke-linecap="round"><g transform="translate(321.13492063492083 57.57142857142878) rotate(0 229.5 1)"><path d="M1.56 1.1 C78.48 2.17, 384.7 4.59, 460.74 4.59 M-1.03 -0.77 C75.74 -0.26, 383.39 0.24, 459.44 0.98" stroke="#1e1e1e" stroke-width="2" fill="none"></path></g></g><mask></mask><g transform="translate(461.92063492063505 19.82142857142884) rotate(0 94.09395599365234 17.5)"><text x="0" y="24.528" font-family="Virgil, Segoe UI Emoji" font-size="28px" fill="#1e1e1e" text-anchor="start" style="white-space: pre;" direction="ltr" dominant-baseline="alphabetic">ChoiceFactory</text></g><g transform="translate(331.63492063492083 95.57142857142878) rotate(0 155.31985473632812 12.5)"><text x="0" y="17.52" font-family="Virgil, Segoe UI Emoji" font-size="20px" fill="#1e1e1e" text-anchor="start" style="white-space: pre;" direction="ltr" dominant-baseline="alphabetic">static get_choice(case): Choice</text></g><g stroke-linecap="round"><g transform="translate(324.68620555220514 79.77978203188297) rotate(0 228.78571428571428 1)"><path d="M-0.48 -1.95 C75.69 -1.78, 379.76 -0.44, 455.82 0.07 M-4.19 3.17 C73 3.73, 383.61 2.56, 461.27 2.66" stroke="#1e1e1e" stroke-width="2" fill="none"></path></g></g><mask></mask><g stroke-linecap="round"><g transform="translate(629.848723037295 236.83563527885508) rotate(0 -0.6661022380456529 -49.724944881241555)"><path d="M0 0 C-0.22 -16.57, -1.11 -82.87, -1.33 -99.45 M0 0 C-0.22 -16.57, -1.11 -82.87, -1.33 -99.45" stroke="#1e1e1e" stroke-width="4" fill="none"></path></g></g><mask></mask><g stroke-linecap="round" transform="translate(865.1187630240962 10) rotate(0 322.71428571428544 60.428571428571416)"><path d="M30.21 0 C261.58 1.81, 493.55 0.74, 615.21 0 M30.21 0 C174.63 -0.55, 318.41 -1.22, 615.21 0 M615.21 0 C635.02 0.25, 648.45 11.13, 645.43 30.21 M615.21 0 C631.74 1.87, 644.7 14.01, 645.43 30.21 M645.43 30.21 C647.21 48.68, 646.54 55.82, 645.43 90.64 M645.43 30.21 C644.91 50.76, 646.66 71, 645.43 90.64 M645.43 90.64 C645.66 109.17, 634.04 123.92, 615.21 120.86 M645.43 90.64 C645.68 107.93, 639.02 124.04, 615.21 120.86 M615.21 120.86 C403.64 115.43, 192.51 116.17, 30.21 120.86 M615.21 120.86 C441.96 123.53, 267.53 122.53, 30.21 120.86 M30.21 120.86 C9.39 124.7, -2.76 108.57, 0 90.64 M30.21 120.86 C14.38 117.66, 1.37 107.14, 0 90.64 M0 90.64 C-2.53 70.62, -1.66 51.35, 0 30.21 M0 90.64 C-1 71.62, -1.32 47.45, 0 30.21 M0 30.21 C-3.12 13.4, 11.54 -0.65, 30.21 0 M0 30.21 C4.17 7.34, 11.91 -3.88, 30.21 0" stroke="#1e1e1e" stroke-width="2" fill="none"></path></g><g stroke-linecap="round"><g transform="translate(869.833048738382 56.85714285714283) rotate(0 318.78571428571433 2.428571428571445)"><path d="M0.41 1.8 C106.58 2.3, 529.94 2.78, 636.11 3.34 M-2.82 0.31 C104.38 1.12, 535.33 4.79, 641.72 6.15" stroke="#1e1e1e" stroke-width="2" fill="none"></path></g></g><mask></mask><g transform="translate(1152.5473344526672 18.285714285714164) rotate(0 36.90399169921875 17.5)"><text x="0" y="24.528" font-family="Virgil, Segoe UI Emoji" font-size="28px" fill="#1e1e1e" text-anchor="start" style="white-space: pre;" direction="ltr" dominant-baseline="alphabetic">Game</text></g><g transform="translate(871.4044773098104 91.28571428571422) rotate(0 315.6796875 12.5)"><text x="0" y="17.52" font-family="Virgil, Segoe UI Emoji" font-size="20px" fill="#1e1e1e" text-anchor="start" style="white-space: pre;" direction="ltr" dominant-baseline="alphabetic">static throw_result(first_player_choice, second_player_choice)</text></g><g stroke-linecap="round"><g transform="translate(869.2771907985235 79.60121060331142) rotate(0 318.07142857142844 2.428571428571445)"><path d="M2.02 0.07 C108.38 0.44, 532.33 1.77, 637.98 2.6 M-0.32 -2.36 C105.84 -1.74, 531.02 3.23, 636.73 5" stroke="#1e1e1e" stroke-width="2" fill="none"></path></g></g><mask></mask><g stroke-linecap="round"><g transform="translate(790.7063492063497 76.27271986268909) rotate(0 32.42049262315919 0.13003361419305293)"><path d="M0 0 C14.25 0.06, 28.5 0.11, 64.84 0.26 M0 0 C24.1 0.1, 48.19 0.19, 64.84 0.26" stroke="#1e1e1e" stroke-width="4" fill="none"></path></g></g><mask></mask><g transform="translate(320.17402965438504 349.90886787217323) rotate(0 36.30403137207031 16.222286570075596)"><text x="0" y="22.737156856617965" font-family="Virgil, Segoe UI Emoji" font-size="25.955658512120962px" fill="#1971c2" text-anchor="start" style="white-space: pre;" direction="ltr" dominant-baseline="alphabetic">Paper</text></g><g transform="translate(174.94594036037498 148.0315238890102) rotate(0 28.817459106445312 16.222286570075596)"><text x="0" y="22.737156856617965" font-family="Virgil, Segoe UI Emoji" font-size="25.955658512120962px" fill="#e03131" text-anchor="start" style="white-space: pre;" direction="ltr" dominant-baseline="alphabetic">Rock</text></g><g transform="translate(14.268054332959423 354.02881366774795) rotate(0 51.147430419921875 16.222286570075596)"><text x="0" y="22.737156856617965" font-family="Virgil, Segoe UI Emoji" font-size="25.955658512120962px" fill="#2f9e44" text-anchor="start" style="white-space: pre;" direction="ltr" dominant-baseline="alphabetic">Scissors</text></g><g mask="url(#mask-z9VXb8jsfQQR0UEoG_Wvm)" stroke-linecap="round"><g transform="translate(361.3734876101327 345.7889220765984) rotate(0 -59.739214035834024 -89.47756263088269)"><path d="M0 0 C0.17 -9.78, 4.29 -39.65, 1.03 -58.71 C-2.23 -77.76, -8.41 -97.51, -19.57 -114.33 C-30.73 -131.15, -49.1 -148.88, -65.92 -159.65 C-82.74 -170.42, -111.41 -175.74, -120.51 -178.96 M0 0 C0.17 -9.78, 4.29 -39.65, 1.03 -58.71 C-2.23 -77.76, -8.41 -97.51, -19.57 -114.33 C-30.73 -131.15, -49.1 -148.88, -65.92 -159.65 C-82.74 -170.42, -111.41 -175.74, -120.51 -178.96" stroke="#1e1e1e" stroke-width="4" fill="none"></path></g><g transform="translate(361.3734876101327 345.7889220765984) rotate(0 -59.739214035834024 -89.47756263088269)"><path d="M-120.51 -178.96 L-105.7 -181.37 L-109.14 -169.17 L-120.51 -178.96" stroke="none" stroke-width="0" fill="#1e1e1e" fill-rule="evenodd"></path><path d="M-120.51 -178.96 C-115.82 -179.72, -111.13 -180.49, -105.7 -181.37 M-120.51 -178.96 C-115.55 -179.77, -110.59 -180.58, -105.7 -181.37 M-105.7 -181.37 C-106.59 -178.23, -107.48 -175.08, -109.14 -169.17 M-105.7 -181.37 C-106.64 -178.06, -107.57 -174.76, -109.14 -169.17 M-109.14 -169.17 C-112.63 -172.17, -116.12 -175.17, -120.51 -178.96 M-109.14 -169.17 C-113.57 -172.98, -117.99 -176.79, -120.51 -178.96 M-120.51 -178.96 C-120.51 -178.96, -120.51 -178.96, -120.51 -178.96 M-120.51 -178.96 C-120.51 -178.96, -120.51 -178.96, -120.51 -178.96" stroke="#1e1e1e" stroke-width="4" fill="none"></path></g></g><mask id="mask-z9VXb8jsfQQR0UEoG_Wvm"><rect x="0" y="0" fill="#fff" width="582.911888579588" height="624.7440473383638"></rect><rect x="305.08451442929703" y="215.23813967932324" fill="#000" width="73.43846130371094" height="32.444573140151206" opacity="1"></rect></mask><g transform="translate(305.0845144292971 215.2381396793233) rotate(0 -2.824051576992204 41.07321976639241)"><text x="36.71923065185547" y="22.737156856617965" font-family="Virgil, Segoe UI Emoji" font-size="25.955658512120962px" fill="#1e1e1e" text-anchor="middle" style="white-space: pre;" direction="ltr" dominant-baseline="alphabetic">beats</text></g><g mask="url(#mask-71KcZdzl15QcJPKQdqo-W)" stroke-linecap="round"><g transform="translate(190.1755071063145 334.9655268051953) rotate(256.13652190755465 -75.91265482709944 -77.15295283609291)"><path d="M0 0 C-1.52 -9.42, -2.27 -37.58, -9.1 -56.5 C-15.93 -75.41, -25.64 -97.81, -40.99 -113.47 C-56.34 -129.12, -82.73 -143.62, -101.2 -150.43 C-119.68 -157.24, -143.39 -153.66, -151.83 -154.31 M0 0 C-1.52 -9.42, -2.27 -37.58, -9.1 -56.5 C-15.93 -75.41, -25.64 -97.81, -40.99 -113.47 C-56.34 -129.12, -82.73 -143.62, -101.2 -150.43 C-119.68 -157.24, -143.39 -153.66, -151.83 -154.31" stroke="#1e1e1e" stroke-width="4" fill="none"></path></g><g transform="translate(190.1755071063145 334.9655268051953) rotate(256.13652190755465 -75.91265482709944 -77.15295283609291)"><path d="M-151.83 -154.31 L-138.33 -160.85 L-138.14 -148.17 L-151.83 -154.31" stroke="none" stroke-width="0" fill="#1e1e1e" fill-rule="evenodd"></path><path d="M-151.83 -154.31 C-148.56 -155.89, -145.3 -157.47, -138.33 -160.85 M-151.83 -154.31 C-147.77 -156.27, -143.72 -158.23, -138.33 -160.85 M-138.33 -160.85 C-138.28 -157.72, -138.23 -154.59, -138.14 -148.17 M-138.33 -160.85 C-138.26 -156.68, -138.2 -152.52, -138.14 -148.17 M-138.14 -148.17 C-140.97 -149.44, -143.81 -150.71, -151.83 -154.31 M-138.14 -148.17 C-143.34 -150.5, -148.54 -152.83, -151.83 -154.31 M-151.83 -154.31 C-151.83 -154.31, -151.83 -154.31, -151.83 -154.31 M-151.83 -154.31 C-151.83 -154.31, -151.83 -154.31, -151.83 -154.31" stroke="#1e1e1e" stroke-width="4" fill="none"></path></g></g><mask id="mask-71KcZdzl15QcJPKQdqo-W"><rect x="0" y="0" fill="#fff" width="442.00081676051343" height="589.271432477381"></rect><rect x="33.921634641681976" y="216.38698817507657" fill="#000" width="73.43846130371094" height="32.444573140151206" opacity="1"></rect></mask><g transform="translate(34.103421683002864 216.1548818877921) rotate(358.9114905165062 80.1594305962122 41.47045058517051)"><text x="36.71923065185547" y="22.737156856617965" font-family="Virgil, Segoe UI Emoji" font-size="25.955658512120962px" fill="#1e1e1e" text-anchor="middle" style="white-space: pre;" direction="ltr" dominant-baseline="alphabetic">beats</text></g><g mask="url(#mask-A_1CtmPNb5XHVhdF-btU_)" stroke-linecap="round"><g transform="translate(317.630689762503 473.344951040702) rotate(143.96685243567208 -106.58399240654192 -78.47314025404597)"><path d="M0 0 C-3.57 -12.3, -8.36 -52.02, -21.43 -73.83 C-34.51 -95.63, -55.27 -116.98, -78.47 -130.83 C-101.67 -144.69, -138.18 -153.82, -160.63 -156.95 C-183.08 -160.07, -204.41 -150.82, -213.17 -149.6 M0 0 C-3.57 -12.3, -8.36 -52.02, -21.43 -73.83 C-34.51 -95.63, -55.27 -116.98, -78.47 -130.83 C-101.67 -144.69, -138.18 -153.82, -160.63 -156.95 C-183.08 -160.07, -204.41 -150.82, -213.17 -149.6" stroke="#1e1e1e" stroke-width="4" fill="none"></path></g><g transform="translate(317.630689762503 473.344951040702) rotate(143.96685243567208 -106.58399240654192 -78.47314025404597)"><path d="M-213.17 -149.6 L-201.5 -159.02 L-198.45 -146.72 L-213.17 -149.6" stroke="none" stroke-width="0" fill="#1e1e1e" fill-rule="evenodd"></path><path d="M-213.17 -149.6 C-208.69 -153.21, -204.22 -156.83, -201.5 -159.02 M-213.17 -149.6 C-208.83 -153.1, -204.49 -156.6, -201.5 -159.02 M-201.5 -159.02 C-200.86 -156.45, -200.22 -153.88, -198.45 -146.72 M-201.5 -159.02 C-200.37 -154.46, -199.23 -149.89, -198.45 -146.72 M-198.45 -146.72 C-202.3 -147.47, -206.15 -148.22, -213.17 -149.6 M-198.45 -146.72 C-201.98 -147.41, -205.5 -148.1, -213.17 -149.6 M-213.17 -149.6 C-213.17 -149.6, -213.17 -149.6, -213.17 -149.6 M-213.17 -149.6 C-213.17 -149.6, -213.17 -149.6, -213.17 -149.6" stroke="#1e1e1e" stroke-width="4" fill="none"></path></g></g><mask id="mask-A_1CtmPNb5XHVhdF-btU_"><rect x="0" y="0" fill="#fff" width="630.7986745755868" height="730.2912315487939"></rect><rect x="182.39218392545303" y="437.5315637873026" fill="#000" width="73.43846130371094" height="32.444573140151206" opacity="1"></rect></mask><g transform="translate(182.20335443121778 436.9509778634101) rotate(359.3556710392261 28.843342924743254 -42.40016744687688)"><text x="36.71923065185547" y="22.737156856617965" font-family="Virgil, Segoe UI Emoji" font-size="25.955658512120962px" fill="#1e1e1e" text-anchor="middle" style="white-space: pre;" direction="ltr" dominant-baseline="alphabetic">beats</text></g></svg>